<!DOCTYPE svg PUBLIC "-//W3C//DTD SVG 1.1//EN" "http://www.w3.org/Graphics/SVG/1.1/DTD/svg11.dtd">

<!-- Uploaded to: SVG Repo, www.svgrepo.com, Transformed by: SVG Repo Mixer Tools -->
<svg height="207px" width="207px" xmlns="http://www.w3.org/2000/svg" aria-label="CSS3" role="img" viewBox="-102.4 -102.4 716.80 716.80" fill="#000000">

<g id="SVGRepo_bgCarrier" stroke-width="0">

<rect x="-102.4" y="-102.4" width="716.80" height="716.80" rx="358.4" fill="#fff" strokewidth="0"/>

</g>

<g id="SVGRepo_tracerCarrier" stroke-linecap="round" stroke-linejoin="round"/>

<g id="SVGRepo_iconCarrier">

<path fill="#264de4" d="M72 460L30 0h451l-41 460-184 52"/>

<path fill="#2965f1" d="M256 37V472l149-41 35-394"/>

<path fill="#ebebeb" d="m114 94h142v56H119m5 58h132v57H129m3 28h56l4 45 64 17v59L139 382"/>

<path fill="#ffffff" d="m256 208v57h69l-7 73-62 17v59l115-32 26-288H256v56h80l-5.5 58Z"/>

</g>

</svg>