<?xml version="1.0" encoding="UTF-8"?><svg id="illustration-automatic-backups" xmlns="http://www.w3.org/2000/svg" xmlns:xlink="http://www.w3.org/1999/xlink" viewBox="0 0 455 402"><defs><style>.cls-1,.cls-2{fill:#fff;}.cls-3{fill:url(#Gradient_bez_nazwy_5-3);}.cls-4{fill:url(#Gradient_bez_nazwy_4);}.cls-5{fill:#4ca3ff;}.cls-6{fill:#c3c8d9;}.cls-7{fill:url(#Gradient_bez_nazwy_64);}.cls-2,.cls-8,.cls-9{fill-rule:evenodd;}.cls-10{fill:url(#Gradient_bez_nazwy_6);}.cls-11{stroke:#0085fc;}.cls-11,.cls-12{stroke-linecap:round;stroke-linejoin:round;stroke-width:4px;}.cls-11,.cls-12,.cls-13,.cls-14,.cls-15{fill:none;}.cls-16{fill:url(#Gradient_bez_nazwy_8-2);}.cls-16,.cls-17{opacity:.16;}.cls-16,.cls-17,.cls-12,.cls-18,.cls-19,.cls-20,.cls-21,.cls-22{isolation:isolate;}.cls-23{fill:url(#Gradient_bez_nazwy_6-2);}.cls-24{fill:url(#Gradient_bez_nazwy_5-5);}.cls-25{fill:#0858c7;}.cls-17{fill:url(#Gradient_bez_nazwy_8);}.cls-12{opacity:.24;stroke:#101c4f;}.cls-26{fill:url(#Gradient_bez_nazwy_5);}.cls-18{fill:url(#Gradient_bez_nazwy_9-2);}.cls-18,.cls-20{opacity:.24;}.cls-27{fill:url(#Gradient_bez_nazwy_4-2);}.cls-28{fill:#e7eaf3;}.cls-29{fill:#007bfc;}.cls-19{fill:url(#Gradient_bez_nazwy_7-2);}.cls-19,.cls-21{opacity:.8;}.cls-13{stroke:#0896fd;}.cls-30{fill:url(#Gradient_bez_nazwy_5-4);}.cls-8{fill:#336791;}.cls-20{fill:url(#Gradient_bez_nazwy_9);}.cls-21{fill:url(#Gradient_bez_nazwy_7);}.cls-15{stroke:#04a7fa;}.cls-22{fill:#101c4f;opacity:.18;}.cls-31{fill:url(#Gradient_bez_nazwy_5-2);}.cls-32{fill:url(#Gradient_bez_nazwy_4-3);}</style><linearGradient id="Gradient_bez_nazwy_5" x1="307.81" y1="-471" x2="138.4" y2="-471" gradientTransform="translate(0 -287.44) scale(1 -1)" gradientUnits="userSpaceOnUse"><stop offset="0" stop-color="#1d53da"/><stop offset="1" stop-color="#3f75fc"/></linearGradient><linearGradient id="Gradient_bez_nazwy_4" x1="307.81" y1="-433.82" x2="138.4" y2="-433.82" gradientTransform="translate(0 -287.44) scale(1 -1)" gradientUnits="userSpaceOnUse"><stop offset="0" stop-color="#0b3ebf"/><stop offset="1" stop-color="#2e5fdb"/></linearGradient><linearGradient id="Gradient_bez_nazwy_5-2" y1="-430.32" y2="-430.32" xlink:href="#Gradient_bez_nazwy_5"/><linearGradient id="Gradient_bez_nazwy_4-2" y1="-393.15" y2="-393.15" xlink:href="#Gradient_bez_nazwy_4"/><linearGradient id="Gradient_bez_nazwy_5-3" y1="-391.22" y2="-391.22" xlink:href="#Gradient_bez_nazwy_5"/><linearGradient id="Gradient_bez_nazwy_6" x1="307.81" y1="-353.61" x2="138.4" y2="-353.61" gradientTransform="translate(0 -287.44) scale(1 -1)" gradientUnits="userSpaceOnUse"><stop offset="0" stop-color="#0397f6"/><stop offset="1" stop-color="#00baff"/></linearGradient><linearGradient id="Gradient_bez_nazwy_7" x1="223.21" y1="-509.55" x2="223.21" y2="-287.52" gradientTransform="translate(0 -287.44) scale(1 -1)" gradientUnits="userSpaceOnUse"><stop offset="0" stop-color="#17bdff"/><stop offset=".8" stop-color="#17bdff" stop-opacity="0"/></linearGradient><linearGradient id="Gradient_bez_nazwy_9" x1="222.92" y1="-459.96" x2="222.92" y2="-542.1" gradientTransform="translate(0 -287.44) scale(1 -1)" gradientUnits="userSpaceOnUse"><stop offset="0" stop-color="#17bdff"/><stop offset=".98" stop-color="#17bdff" stop-opacity="0"/></linearGradient><linearGradient id="Gradient_bez_nazwy_8" x1="223.21" y1="-509.55" x2="223.21" y2="-287.52" gradientTransform="translate(0 -287.44) scale(1 -1)" gradientUnits="userSpaceOnUse"><stop offset="0" stop-color="#51b9ff"/><stop offset=".7" stop-color="#2389f0" stop-opacity=".7"/><stop offset="1" stop-color="#2389f0" stop-opacity="0"/></linearGradient><linearGradient id="Gradient_bez_nazwy_64" x1="80.5" y1="-157.7" x2="240.5" y2="-157.7" gradientTransform="translate(-.5 64.42) scale(1 -1)" gradientUnits="userSpaceOnUse"><stop offset="0" stop-color="#3f4b75"/><stop offset="1" stop-color="#636f99"/></linearGradient><linearGradient id="Gradient_bez_nazwy_5-4" x1="455" y1="-562.68" x2="286" y2="-562.68" xlink:href="#Gradient_bez_nazwy_5"/><linearGradient id="Gradient_bez_nazwy_4-3" x1="455" y1="-526.64" x2="286" y2="-526.64" xlink:href="#Gradient_bez_nazwy_4"/><linearGradient id="Gradient_bez_nazwy_5-5" x1="455" y1="-522.95" x2="286" y2="-522.95" xlink:href="#Gradient_bez_nazwy_5"/><linearGradient id="Gradient_bez_nazwy_6-2" x1="455" y1="-486.93" x2="286" y2="-486.93" xlink:href="#Gradient_bez_nazwy_6"/><linearGradient id="Gradient_bez_nazwy_7-2" x1="370.5" y1="-601.71" x2="370.5" y2="-460.49" xlink:href="#Gradient_bez_nazwy_7"/></defs><path id="line_2" class="cls-15" d="M354.1,287.27c-2.07,1.38-141.17,77.58-144.11,79.19-8.08,4.46-19.44,5.1-28.79,.64s-116.27-66.08-131.97-75.38c-5.8-3.44-6.76-10.29,.99-14.3,7.02-3.66,173.03-94.43,173.03-94.43"/><g><path class="cls-26" d="M307.81,146.79v29.79c0,11.54-8.28,23.16-24.76,31.92-33.04,17.7-86.66,17.7-119.79-.09-16.48-8.85-24.76-20.3-24.85-31.84v-31.23l169.41,1.44Z"/><path class="cls-4" d="M163.22,178.4c33.05,17.7,86.76,17.78,119.8,.09,33.05-17.7,33.05-46.41,0-64.11-33.05-17.7-86.76-17.78-119.8-.09-33.05,17.7-33.14,46.33,0,64.11Z"/><path class="cls-31" d="M307.81,106.12v29.79c0,11.54-8.28,23.16-24.76,31.92-33.04,17.7-86.66,17.7-119.79-.09-16.48-8.85-24.76-20.3-24.85-31.84v-31.23l169.41,1.44Z"/><path class="cls-27" d="M163.22,137.72c33.05,17.7,86.76,17.78,119.8,.09,33.05-17.7,33.05-46.41,0-64.11-33.05-17.7-86.76-17.78-119.8-.09-33.05,17.7-33.14,46.33,0,64.11Z"/><path class="cls-3" d="M138.4,66.37v29.73c.09,11.54,8.38,23.07,24.85,31.84,33.04,17.7,86.75,17.78,119.79,.09,16.48-8.85,24.67-20.39,24.76-31.92v-29.79l-169.41,.06Z"/><path class="cls-10" d="M163.22,98.18c33.05,17.7,86.76,17.79,119.8,.09,33.05-17.7,33.05-46.41,0-64.11-33.05-17.7-86.76-17.78-119.8-.09-33.05,17.7-33.14,46.33,0,64.11Z"/><path class="cls-21" d="M138.5,.08h169.41l-.28,173.6c0,13.28-6.24,25.69-24.49,35.33-33.06,17.53-86.71,17.45-119.77-.09-17.7-9.38-24.87-21.61-24.87-33.85V.08Z"/><path class="cls-20" d="M138.41,172.87c-1.58,12.58,6.61,25.5,24.57,35.13,33.04,17.7,86.75,17.78,119.79,.09,16.47-8.85,24.76-20.38,24.85-31.92v78.5l-169.4-.52v-81.63c.09,.09,.19,.17,.19,.35Z"/><path class="cls-17" d="M138.5,.08h169.41l-.28,173.6c0,13.28-6.24,25.69-24.49,35.33-33.06,17.53-86.71,17.45-119.77-.09-17.7-9.38-24.87-21.61-24.87-33.85V.08Z"/></g><path id="line_1" class="cls-13" d="M154.55,222.12v70.1s1.05,19.63-14.08,26.28c-9.87,4.35-19.3,9.63-28.16,15.77"/><g id="browser"><path id="Prostokąt_zaokrąglony_1082_kopia" class="cls-7" d="M236.47,199L83.53,110.81c-1.95-1.12-3.53-.47-3.53,1.49v127.35c.19,2.33,1.51,4.41,3.53,5.58l152.93,88.19c1.95,1.12,3.53,.47,3.53-1.49v-127.44c-.29-2.27-1.59-4.28-3.53-5.49Z"/><path id="Kształt_1160_kopia" class="cls-22" d="M83.53,110.65l152.93,88.19c1.94,1.21,3.24,3.22,3.53,5.49v10.14L80,123.39v-11.26c0-1.95,1.58-2.6,3.53-1.49Z"/><path id="Elipsa_1161_kopia" class="cls-1" d="M88.81,118.43c1.21,.79,1.97,2.11,2.05,3.54,.11,.66-.29,1.3-.93,1.49-.4,.09-.81-.02-1.12-.28-1.23-.78-2.02-2.09-2.15-3.54-.1-.69,.34-1.34,1.03-1.49,.4-.06,.8,.04,1.12,.28Zm5.88,3.45c1.21,.79,1.97,2.11,2.05,3.54,.15,.67-.27,1.33-.93,1.49h0c-.4,.09-.81-.02-1.12-.28-1.19-.8-1.95-2.11-2.05-3.54-.17-.65,.22-1.31,.87-1.48,.02,0,.04-.01,.06-.01h0c.39-.16,.85-.05,1.12,.28Zm5.88,3.36c1.21,.79,1.97,2.11,2.05,3.54,.11,.66-.29,1.3-.93,1.49-.4,.09-.81-.02-1.12-.28-1.21-.79-1.97-2.11-2.05-3.54-.09-.67,.36-1.28,1.03-1.4,.35-.08,.73-.02,1.03,.19Z"/></g><g id="settings"><path id="Prostokąt_1150" class="cls-6" d="M74.53,299.38l102.47,40.86v18.09l-74.85,43.14L0,342.39v-5.09l74.53-37.92Z"/><path id="Prostokąt_1150_kopia" class="cls-28" d="M74.85,281.05l102.15,59.19-74.33,56.22L0,337.3l74.85-56.25Z"/><path id="Kształt_1232_kopia_2" class="cls-12" d="M43.65,337.44l37.81-27.95"/><path id="Kształt_1232_kopia_3" class="cls-12" d="M68.31,352.23l37.81-27.95"/><path id="Kształt_1232_kopia_4" class="cls-12" d="M94.62,368.67l37.81-27.95"/><path id="Kształt_1232_kopia_7" class="cls-11" d="M43.65,337.44l15.11-11.17"/><g><path id="Kształt_1240_kopia_2" class="cls-25" d="M49.98,324.53v3.29l7.44,4.91,9-8.19v-3.29"/><path id="Kształt_1238_kopia_2" class="cls-29" d="M58.2,316.31l8.22,4.93-6.58,4.93-4.93-3.29,3.29-6.58Z"/><path id="Kształt_1239_kopia_2" class="cls-5" d="M54.92,322.88l-4.93,1.64,8.22,4.93,1.74-3.51-5.03-3.07Z"/></g><path id="Kształt_1232_kopia_8" class="cls-11" d="M68.31,352.23l22.01-16.21"/><g><path id="Kształt_1240_kopia_3" class="cls-25" d="M85.72,330.92v3.29l8.07,4.89,8.37-8.18v-3.29"/><path id="Kształt_1238_kopia_3" class="cls-29" d="M93.94,322.7l8.22,4.93-6.58,4.93-4.93-3.29,3.29-6.58Z"/><path id="Kształt_1239_kopia_3" class="cls-5" d="M90.65,329.28l-4.93,1.64,8.22,4.93,1.66-3.29-4.95-3.29Z"/></g><path id="Kształt_1232_kopia_9" class="cls-11" d="M94.62,368.67l15.93-11.87"/><g><path id="Kształt_1240_kopia_4" class="cls-25" d="M102.05,354.89v3.29l7.79,4.77,8.65-8.05v-3.29"/><path id="Kształt_1238_kopia_4" class="cls-29" d="M110.27,346.67l8.22,4.93-6.58,4.93-4.93-3.29,3.29-6.58Z"/><path id="Kształt_1239_kopia_4" class="cls-5" d="M106.98,353.25l-4.93,1.64,8.22,4.93,1.78-3.33-5.06-3.24Z"/></g></g><rect class="cls-14" x="286.67" y="133.62" width="168.6" height="253.82"/><g><path class="cls-30" d="M455,236.35v32.71c0,11.51-8.26,23.11-24.7,31.85-32.96,17.65-86.45,17.65-119.51-.09-16.44-8.83-24.7-20.25-24.79-31.76v-31.16l169-1.56Z"/><path class="cls-32" d="M310.76,271.14c32.97,17.66,86.55,17.74,119.52,.09,32.97-17.66,32.97-46.3,0-63.96-32.97-17.66-86.55-17.74-119.52-.09-32.97,17.66-33.06,46.22,0,63.96Z"/><path class="cls-24" d="M286,198.19v31.15c.09,11.51,8.36,23.02,24.79,31.76,32.96,17.65,86.54,17.74,119.51,.09,16.44-8.83,24.61-20.34,24.7-31.85v-32.71l-169,1.56Z"/><path class="cls-23" d="M310.76,231.43c32.97,17.66,86.55,17.74,119.52,.09,32.97-17.66,32.97-46.3,0-63.96-32.97-17.66-86.55-17.74-119.52-.09-32.97,17.66-33.06,46.22,0,63.96Z"/><path class="cls-19" d="M286,267.57c0,12.2,7.15,24.32,24.79,33.58,33.06,17.48,86.54,17.48,119.51,.09,17.55-9.26,24.7-20.16,24.7-34.53V123.05h-169v144.52Z"/><path class="cls-16" d="M286,92.88h169l-.28,173.18c0,13.25-6.22,25.63-24.43,35.24-32.98,17.49-86.5,17.4-119.48-.09-17.65-9.35-24.81-21.56-24.81-33.77V92.88Z"/><path class="cls-18" d="M286.19,265.6c-1.58,12.55,6.59,25.44,24.51,35.05,32.96,17.65,86.54,17.74,119.5,.09,16.44-8.83,24.7-20.34,24.79-31.85v78.32l-168.99-.52v-81.43c.09,.09,.19,.17,.19,.35Z"/></g><g><path id="Kształt_3" class="cls-9" d="M192.63,256.55c-.69-2.72-2.73-4.9-5.4-5.77-1.27-.42-2.51-.94-3.7-1.57,3.31-4.55,6-10.37,7.55-16.41,1.38-5.39,2.43-13.04-.4-18.86-4.14-8.5-10.18-15.27-17.46-19.58-3.88-2.3-7.3-3.38-9.08-3.77-1.69-1.32-3.46-2.53-5.31-3.62-3.5-2.08-6.6-2.99-9.24-2.7-2.07-2.01-4.25-3.9-6.53-5.66-6.38-4.9-11.53-6.92-15.29-6.02-4.56,1.09-6.67,6.34-6.28,15.6,.12,2.94,1.51,12.47,3.7,22.01,1.26,5.48,2.59,10.21,3.98,14.04,1.96,5.44,4.06,9.18,6.42,11.46,1.32,1.27,3.72,3.01,6.24,2.04,.91,1.8,2.38,3.48,3.8,4.7,3.17,2.75,6.14,4.23,8.67,4.41,.02,.53,.03,1.03,.04,1.47,.02,.71,.03,1.4,.06,2.05,.15,4.41,.4,7.92,1.16,10.7,.04,.15,.1,.38,.16,.63,.38,1.55,1,4.14,2.6,6.81,1.06,1.78,2.81,3.99,5.49,5.53,.81,.47,1.68,.86,2.57,1.15,2.74,.9,5.86,1.67,8.12-.75,2.13-2.28,3.17-6.97,3.36-15.19,.02-.22,.05-.43,.07-.64,.01-.14,.03-.28,.04-.41l.5,.34,.13,.08c2.8,1.76,6.21,3.05,8.31,3.13,1.66,.07,6.98-.11,5.72-5.22Z"/><path id="Kształt_1" class="cls-8" d="M187.75,254.51c-8.31-2.82-8.88-6.4-8.88-6.4,8.77-9.98,12.44-26.96,9.28-33.46-8.64-17.73-23.58-20.33-23.83-20.32l-.08-.03c-1.75-1.42-3.6-2.72-5.54-3.87-3.76-2.24-6.61-2.68-8.78-2.03,0,0-26.67-28.08-25.43,1.29,.26,6.25,7.56,50.5,16.27,43.43,2.01-1.62,4.1-3.14,6.26-4.55,1.53,2.05,3.35,3.71,5.27,4.6l.15-.06c-.04,.59-.02,1.17,.06,1.76-2.24,1.6-1.58,2.49-6.07,.97-4.54-1.54-1.87,1.92-.13,3.43,2.11,1.83,6.99,5.51,10.29,2.08l-.13,.53c.88,1.32,1.5,6.15,1.39,10.15-.1,4-.17,6.75,.52,9.32s1.38,7.87,7.28,9.81c4.92,1.62,7.48-.06,7.83-5.13,.25-3.6,.82-2.72,.86-6.05l.46-1.32c.53-4.78,.08-6.67,3.12-4.16l.74,.5c2.23,1.41,5.16,2.56,6.87,2.63,3.69,.15,5.88-1.89,2.24-3.12h0Z"/><path id="Kształt_2" class="cls-2" d="M190.82,256.1c-.32-1.29-1.34-2.24-3.04-2.81-5.04-1.71-6.84-3.58-7.43-4.43,3.92-4.62,7.14-11.08,8.88-17.84,.84-3.25,2.51-11.37-.02-16.56-3.75-7.69-9.25-13.83-15.92-17.76-4.58-2.7-8.45-3.58-9.2-3.64-1.61-1.4-3.35-2.66-5.18-3.75-3.44-2.05-6.41-2.81-8.87-2.3-2.49-2.52-13.93-13.56-21-11.86-3.95,.95-5.78,5.67-5.42,14.03,.12,2.81,1.47,12.03,3.61,21.35,2.82,12.26,5.88,20.05,9.1,23.15,.39,.38,.82,.71,1.29,.99,1.17,.68,2.61,.9,4.11-.31,2.49-2.02,4.81-3.57,5.67-4.13,1.15,1.42,2.53,2.64,4.08,3.62,0,.04,0,.09,0,.13-.29,.23-.52,.43-.72,.61-.99,.87-1.19,1.06-4.36-.02-.9-.31-3.3-1.12-3.33,.8-.04,2.09,2.83,4.64,3.16,4.92,1.02,.9,2.12,1.7,3.29,2.39,2.55,1.47,4.79,1.8,6.58,.96-.06,7.52,.22,15.11,1,17.83,.64,2.23,2.22,7.67,7.18,10.53,.77,.44,1.57,.8,2.41,1.08,5.18,1.71,7.43,.37,8.3-4.96,.47-2.84,1.27-9.81,1.64-13.59,.89,.81,1.87,1.51,2.92,2.1,2.3,1.33,4.96,2.3,6.63,2.37,1.87,.08,5.25-.43,4.64-2.92Zm-12.34-34.07c-.03,1.07-.13,2.13-.31,3.18-.2,1.24-.32,2.48-.37,3.73-.04,1.44,.12,3.06,.27,4.62,.31,3.15,.63,6.4-.6,8.71-.19-.5-.38-1.04-.55-1.61-.15-.52-.49-1.4-.95-2.61-1.79-4.74-5.98-15.83-3.84-18.13,1.1-1.18,3.9,.35,6.33,2.1h0Zm-4.94-22.79c5.97,3.6,10.69,8.9,14.03,15.76,2.56,5.26-.26,20.83-8.43,30.95-.08-.16-.16-.33-.25-.5-.03-.07-.07-.14-.1-.21,2.11-2.8,1.7-7.02,1.33-10.77-.15-1.54-.29-2.99-.26-4.25,.04-1.16,.16-2.32,.34-3.46,.24-1.43,.35-2.89,.32-4.34,.04-.2,.06-.41,.03-.62-.13-1.71-1.74-7.51-5.03-13.82-1.8-3.45-4.42-7.66-7.99-11.55,2.09,.72,4.11,1.66,6,2.81Zm-33.4,32.69c-1.65,1.34-2.79,.24-3.17-.12-2.44-2.35-5.28-9.94-7.78-20.83-2.16-9.42-3.43-18.36-3.53-20.73-.32-7.47,1.22-11.66,4.55-12.47,5.43-1.31,14.36,6.5,17.94,9.92-.05,.03-.11,.05-.16,.08-5.89,3.46-5.75,15.25-5.73,15.98,0,.28,.02,.68,.05,1.23,.1,2.03,.29,5.8-.21,9.67-.47,3.59,.56,7.96,2.83,12,.23,.42,.48,.82,.73,1.22-1.01,.66-3.2,2.15-5.53,4.04Zm6.29-6.05c-1.83-3.25-2.66-6.79-2.28-9.7,.53-4.08,.34-8.01,.23-10.13-.01-.3-.03-.55-.04-.76,.86-.38,4.84-.55,7.69,1.85,1.3,1.09,2.09,2.57,2.42,4.51,1.7,10.05,.22,12.98-.96,15.33-.24,.48-.47,.94-.67,1.44l-.15,.39c-.39,.91-.71,1.85-.97,2.8-1.94-1.13-3.83-3.17-5.27-5.73Zm.3,12.4c-.51-.44-.97-.94-1.38-1.48,.5,.05,1,.16,1.47,.34,3.73,1.27,4.31,.97,5.57-.14,.34-.31,.7-.6,1.07-.87h0c.67-.48,.98-.16,1.54,.43,.45,.48,.9,1.39,1.07,2.22,.08,.39,.18,1.09-.13,1.41-2.63,2.73-6.46,.46-9.21-1.92Zm19.53,32.23c-4.57-1.51-6.18-5.13-7.25-8.81-.69-2.38-1.03-11.52-.79-21.25,0-.14-.01-.27-.04-.4-.03-.26-.07-.52-.13-.77-.36-1.64-1.23-3.35-2.27-4.45-.41-.44-1.17-1.24-2.09-1.5,.24-.88,.54-1.74,.9-2.58l.15-.39c.17-.44,.39-.87,.62-1.32,1.24-2.46,2.94-5.84,1.1-16.73-.69-4.08-3-7.21-6.49-8.81-1.56-.71-3.25-1.08-4.97-1.08-.21,0-.39,0-.57,.02,.27-3.56,1.28-9.91,5.05-12.12,2.38-1.39,5.54-.93,9.39,1.37,7.59,4.53,12.46,11.83,15.21,17.16,2.37,4.59,3.65,8.59,4.16,10.64-3.85-2.67-6.47-3.31-7.79-1.89-2.89,3.09,1.58,14.91,3.73,20.59,.39,1.04,.73,1.94,.84,2.3,.59,1.9,1.35,3.75,2.26,5.52,.2,.41,.4,.81,.55,1.14-1.16-.29-3.26-.6-3.07,3.99-.15,2.16-1.25,12.04-1.8,15.44-.73,4.48-2.3,5.41-6.7,3.96Zm19.06-14.15c-1.19-.05-3.19-.72-5.08-1.71-2.09-1.09-3.16-2.09-3.41-2.47-.12-2.86,.78-2.63,1.74-2.39,.15,.04,.3,.07,.44,.1,.09,.13,.18,.27,.29,.41,1.68,2.25,4.68,4.12,8.92,5.56l.05,.02c-.57,.29-1.55,.55-2.94,.49h0Zm-31.81-45.74c.09-.7-.86-1.75-1.78-2.43-.75-.55-1.43-.83-1.77-.73-.15,.05-.26,.18-.27,.34-.04,.33,.17,.85,.31,1.13,.34,.74,.84,1.39,1.47,1.91,.08,.06,.15,.11,.24,.15,.91,.52,1.73,.19,1.81-.37Zm21.22,10.24c-.86-.36-1.7-.39-1.63,.24,.06,.49,.78,1.7,1.63,2.19,.07,.04,.14,.08,.22,.11,.38,.18,.83,.16,1.19-.06,.28-.16,.46-.46,.45-.78h0c-.07-.63-.98-1.33-1.85-1.69h0Z"/></g></svg>
