<svg xmlns="http://www.w3.org/2000/svg" data-name="Layer 1" width="450" height="300.7592" viewBox="20 -20 450 310.7592" xmlns:xlink="http://www.w3.org/1999/xlink"><path d="M703.48622,469.32728V250.8827a25.29812,25.29812,0,0,0-25.2623-25.2623H334.95386a25.29813,25.29813,0,0,0-25.2623,25.2623V469.32728a25.29813,25.29813,0,0,0,25.2623,25.2623H678.22392A25.29812,25.29812,0,0,0,703.48622,469.32728ZM334.95386,491.61754a22.31743,22.31743,0,0,1-22.29026-22.29026V250.8827a22.31744,22.31744,0,0,1,22.29026-22.29027H678.22392a22.31744,22.31744,0,0,1,22.29027,22.29027V469.32728a22.31744,22.31744,0,0,1-22.29027,22.29026Z" transform="translate(-255 -225.6204)" fill="#3f3d56"/><path d="M700.51419,264.92368H312.6636a1.486,1.486,0,1,1,0-2.972H700.51419a1.486,1.486,0,0,1,0,2.972Z" transform="translate(-255 -225.6204)" fill="#3f3d56"/><circle cx="82.9259" cy="20.80425" r="7.43009" fill="#007AFF"/><circle cx="108.1882" cy="20.80425" r="7.43009" fill="#007AFF"/><circle cx="133.4505" cy="20.80425" r="7.43009" fill="#007AFF"/><path d="M443.97867,424.85206a.99974.99974,0,0,1-1-1c0-10.42675-4.5708-16.24218-11.94531-22.24707a.99992.99992,0,1,1,1.2627-1.55078c7.83007,6.375,12.68261,12.58008,12.68261,23.79785A.99973.99973,0,0,1,443.97867,424.85206Z" transform="translate(-255 -225.6204)"/><path d="M358.31656,424.85206a.99974.99974,0,0,1-1-1c0-11.21777,4.85254-17.42285,12.68262-23.79785a.99992.99992,0,1,1,1.2627,1.55078c-7.37452,6.00489-11.94532,11.82129-11.94532,22.24707A.99973.99973,0,0,1,358.31656,424.85206Z" transform="translate(-255 -225.6204)"/><path d="M435.41324,356.32179a1,1,0,0,1-.63183-1.77539c7.58056-6.17139,8.19726-14.93848,8.19726-24.92334a1,1,0,0,1,2,0c0,10.50488-.67236,19.74756-8.93457,26.47412A.99381.99381,0,0,1,435.41324,356.32179Z" transform="translate(-255 -225.6204)"/><path d="M366.88248,355.78663a.99383.99383,0,0,1-.63086-.22461c-8.26269-6.72705-8.93506-15.72705-8.93506-25.939a1,1,0,0,1,2,0c0,10.03662.60352,18.20557,8.19776,24.38818a1,1,0,0,1-.63184,1.77539Z" transform="translate(-255 -225.6204)"/><path d="M456.82828,377.77247H435.41276a1,1,0,0,1,0-2h21.41552a1,1,0,1,1,0,2Z" transform="translate(-255 -225.6204)"/><path d="M366.883,377.77247H345.46744a1,1,0,0,1,0-2H366.883a1,1,0,0,1,0,2Z" transform="translate(-255 -225.6204)"/><path d="M401.14762,420.56886a.99974.99974,0,0,1-1-1V351.03908a1,1,0,0,1,2,0v68.52978A.99974.99974,0,0,1,401.14762,420.56886Z" transform="translate(-255 -225.6204)"/><path d="M401.14762,420.56886A35.30522,35.30522,0,0,1,365.883,385.30372V359.58644c0-16.46826,13.5127-26.69873,35.26465-26.69873,22.74121,0,35.26514,9.48193,35.26514,26.69873v25.71728A35.30533,35.30533,0,0,1,401.14762,420.56886Zm0-85.68115c-16.08106,0-33.26465,6.48828-33.26465,24.69873v25.71728a33.2649,33.2649,0,1,0,66.52979,0V359.58644C434.41276,338.09669,413.571,334.88771,401.14762,334.88771Z" transform="translate(-255 -225.6204)"/><path d="M380.651,339.06154a1.0002,1.0002,0,0,1-.9292-.62989,14.08794,14.08794,0,0,1-.98828-4.53173A22.47566,22.47566,0,0,1,401.089,311.49074h.11475a22.46679,22.46679,0,0,1,22.35938,22.35693,12.22735,12.22735,0,0,1-.91016,4.21094,1,1,0,0,1-1.84961-.76075,10.19507,10.19507,0,0,0,.76074-3.4873,20.45407,20.45407,0,0,0-20.36279-20.31982h-.10986a20.46143,20.46143,0,0,0-20.35938,20.36181,12.07569,12.07569,0,0,0,.84717,3.83789,1.00121,1.00121,0,0,1-.92822,1.3711Z" transform="translate(-255 -225.6204)"/><path d="M502.71045,333.62308h-12a7,7,0,0,1,0-14h12a7,7,0,0,1,0,14Z" transform="translate(-255 -225.6204)" fill="#ccc"/><path d="M584.71045,363.12308h-12a7,7,0,0,1,0-14h12a7,7,0,0,1,0,14Z" transform="translate(-255 -225.6204)" fill="#ccc"/><path d="M622.71045,363.12308h-12a7,7,0,0,1,0-14h12a7,7,0,0,1,0,14Z" transform="translate(-255 -225.6204)" fill="#ccc"/><path d="M660.71045,363.12308h-12a7,7,0,0,1,0-14h12a7,7,0,0,1,0,14Z" transform="translate(-255 -225.6204)" fill="#ccc"/><path d="M585.71045,334.12308h-56a7,7,0,0,1,0-14h56a7,7,0,0,1,0,14Z" transform="translate(-255 -225.6204)" fill="#ccc"/><path d="M546.71045,362.12308h-56a7,7,0,0,1,0-14h56a7,7,0,0,1,0,14Z" transform="translate(-255 -225.6204)" fill="#ccc"/><path d="M656.71045,334.12308h-43a7,7,0,0,1,0-14h43a7,7,0,0,1,0,14Z" transform="translate(-255 -225.6204)" fill="#ccc"/><path d="M502.71045,392.62308h-12a7,7,0,0,1,0-14h12a7,7,0,0,1,0,14Z" transform="translate(-255 -225.6204)" fill="#ccc"/><path d="M585.71045,393.12308h-56a7,7,0,0,1,0-14h56a7,7,0,0,1,0,14Z" transform="translate(-255 -225.6204)" fill="#ccc"/><path d="M656.71045,393.12308h-43a7,7,0,0,1,0-14h43a7,7,0,0,1,0,14Z" transform="translate(-255 -225.6204)" fill="#ccc"/><path d="M637.71045,416.62308a7.00786,7.00786,0,0,1,7-7h12a7,7,0,0,1,0,14h-12A7.00785,7.00785,0,0,1,637.71045,416.62308Z" transform="translate(-255 -225.6204)" fill="#ccc"/><path d="M554.71045,417.12308a7.00786,7.00786,0,0,1,7-7h56a7,7,0,0,1,0,14h-56A7.00785,7.00785,0,0,1,554.71045,417.12308Z" transform="translate(-255 -225.6204)" fill="#ccc"/><path d="M483.71045,417.12308a7.00786,7.00786,0,0,1,7-7h43a7,7,0,0,1,0,14h-43A7.00785,7.00785,0,0,1,483.71045,417.12308Z" transform="translate(-255 -225.6204)" fill="#ccc"/></svg>