<svg
   id="svg2"
   width="400"
   height="160"><g
     id="g11"
     transform="matrix(1.25,0,0,-1.25,-574.00253,602.94509)">
<path
       d="M 54.36,74.7 L 558,74.7"
       style="fill:none;stroke:#ffffff;stroke-width:0.23999999;stroke-linecap:butt;stroke-linejoin:miter;stroke-miterlimit:10;stroke-dasharray:none;stroke-opacity:1"
       id="path37" /><g
       id="g2552"
       transform="matrix(2.5650071,0,0,2.5650071,-1722.9173,15.11566)"><path
         id="path161"
         fill="#3781c2" fill-opacity="1" fill-rule="evenodd" stroke="none"
         d="M 851.813,176.314 L 851.812,176.373 L 851.812,181.096 L 856.525,181.096 L 856.525,146.455 L 856.527,146.347 L 856.527,141.673 L 851.812,141.673 L 851.812,146.396 L 851.813,146.455 L 851.813,176.314" /><path
         id="path163"
         fill="#3781c2" fill-opacity="1" fill-rule="evenodd" stroke="none"
         d="M 899.736,156.03 C 899.857,148.865 904.29,143.135 909.638,143.231 C 914.985,143.327 919.221,149.213 919.1,156.378 C 918.978,163.544 914.545,169.274 909.197,169.177 C 903.85,169.081 899.614,163.195 899.736,156.03 z M 938.759,164.693 C 938.882,164.42 938.59,165.101 938.59,165.101 L 938.759,164.693 z M 941.971,135.03 C 942.187,135.4 942.488,135.966 942.846,136.673 L 941.971,135.03 z M 942.248,167.165 C 942.305,167.006 942.371,166.84 942.445,166.665 L 944.032,162.756 L 942.248,167.165 z M 922.5,147.487 C 925.413,144.827 928.036,143.452 931.39,143.452 C 934.823,143.426 937.875,145.115 937.875,148.366 C 937.875,151.079 935.484,152.666 931.212,154.483 C 927.592,156.059 924.898,157.164 923.49,159.445 C 923.662,158.454 923.752,157.43 923.752,156.382 C 923.752,147.583 917.408,140.449 909.582,140.449 C 901.756,140.449 895.412,147.583 895.412,156.382 C 895.412,161.687 897.718,166.386 901.263,169.282 L 891.674,169.282 L 891.674,146.455 L 891.675,146.364 L 891.675,141.673 L 887.416,141.673 L 887.416,146.211 C 887.419,146.291 887.42,146.372 887.42,146.455 L 887.42,169.282 L 883.665,169.282 L 883.665,172.155 L 887.475,172.155 C 887.967,177.951 891.536,181.229 896.477,181.229 C 899.681,181.229 901.44,180.893 902.456,180.42 L 902.456,176.491 C 902.44,176.198 902.44,176.019 902.44,176.019 C 902.396,176.024 902.291,176.026 902.291,176.026 C 900.749,177.457 899.228,178.522 895.675,178.518 C 892.845,178.518 890.973,176.205 891.627,172.155 L 907.567,172.155 C 908.226,172.26 908.898,172.315 909.582,172.315 C 915.259,172.315 920.157,168.561 922.418,163.139 C 922.397,163.44 922.387,163.754 922.387,164.082 C 922.387,169.739 927.83,172.145 933.484,172.133 C 933.7,172.134 933.912,172.133 934.12,172.128 C 936.11,172.16 938.945,171.507 940.676,171.049 L 944.032,162.756 L 948.828,150.988 L 949.391,149.098 L 950.018,150.988 L 956.083,166.093 C 957.202,170.252 961.631,172.052 966.523,172.042 C 968.955,172.053 970.751,171.758 972.905,170.996 L 972.905,166.428 C 970.253,168.367 968.354,169.494 965.345,169.494 C 962.7,169.494 959.521,168.316 959.521,164.4 C 959.47,161.457 961.225,160.919 966.375,158.348 C 970.608,156.499 974.513,154.458 974.536,149.731 C 974.536,141.85 966.818,140.485 963.061,140.473 C 959.707,140.473 956.633,141.306 954.923,142.737 L 954.923,147.94 L 955.198,147.711 C 958.249,144.845 960.945,143.36 964.429,143.36 C 967.863,143.334 970.914,145.024 970.914,148.275 C 970.914,150.988 968.523,152.575 964.251,154.392 C 960.168,156.17 957.489,157.348 956.394,160.293 C 954.729,156.208 946.984,137.233 945.161,133.177 L 940.985,133.177 L 942.875,136.727 C 943.922,138.801 945.445,142.055 946.798,145.168 L 938.759,164.693 C 938.705,164.812 938.573,165.112 938.304,165.727 C 937.687,167.141 937.113,168.447 935.377,169.105 C 934.447,169.42 933.457,169.585 932.306,169.585 C 929.661,169.585 926.278,168.407 926.278,164.491 C 926.227,161.548 928.185,161.01 933.336,158.44 C 937.569,156.59 941.474,154.549 941.497,149.822 C 941.497,141.941 933.778,140.577 930.021,140.564 C 927.039,140.564 924.277,141.223 922.5,142.375 L 922.5,147.487" /><path
         id="path165"
         fill="#3781c2" fill-opacity="1" fill-rule="evenodd" stroke="none"
         d="M 865.32,171.861 L 865.372,168.413 L 865.369,168.181 L 865.415,168.182 C 865.47,168.326 865.544,168.448 865.614,168.539 C 867.345,170.406 869.527,172.261 874.713,172.261 C 879.677,172.261 882.89,168.018 883.019,165.347 L 883.024,146.455 L 883.024,146.361 L 883.024,141.673 L 878.77,141.673 L 878.77,147.306 L 878.769,163.389 C 878.769,166.719 875.864,169.127 872.308,169.127 C 869.352,169.127 865.558,166.451 865.432,163.742 L 865.432,146.45 L 865.434,146.323 L 865.434,141.669 L 861.178,141.669 L 861.178,167.891 L 861.179,171.861 L 865.32,171.861" /></g></g></svg>